<svg id="keycap-logo" xmlns="http://www.w3.org/2000/svg" viewBox="0 0 329.49 284.15"><defs><style>.cls-1{fill:none;stroke:#4895ef;stroke-miterlimit:10;stroke-width:15px;}.cls-2{fill:#4895ef;}</style></defs><path id="bg" class="cls-1" d="M461.82,335.6,356.37,395a32.74,32.74,0,0,0-15.61,20.22l-19,72.41A32.74,32.74,0,0,0,337,524.27L461.5,596.15a32.77,32.77,0,0,0,32.76,0l124.49-71.88a32.74,32.74,0,0,0,15.3-36.69l-19-72.41A32.81,32.81,0,0,0,599.4,395L494,335.6A32.77,32.77,0,0,0,461.82,335.6Z" transform="translate(-313.14 -323.89)"/><path id="upper" class="cls-2" d="M375.88,443.72l86.77,50.1a30.44,30.44,0,0,0,30.42,0l86.85-50.15a10.32,10.32,0,0,0,0-17.87L493.71,376A31.68,31.68,0,0,0,462,376l-86.12,49.72A10.37,10.37,0,0,0,375.88,443.72Z" transform="translate(-313.14 -323.89)"/></svg>